<mxfile host="app.diagrams.net" agent="Mozilla/5.0 (Windows NT 10.0; Win64; x64) AppleWebKit/537.36 (KHTML, like Gecko) Chrome/130.0.0.0 Safari/537.36" version="24.8.6">
  <diagram name="Page-1" id="ZuZgGuamqhhRVhB2Cx0O">
    <mxGraphModel grid="1" page="1" gridSize="10" guides="1" tooltips="1" connect="1" arrows="1" fold="1" pageScale="1" pageWidth="827" pageHeight="1169" math="0" shadow="0">
      <root>
        <mxCell id="0" />
        <mxCell id="1" parent="0" />
        <mxCell id="D12nDHIKq8nvivdVP7us-5" style="edgeStyle=orthogonalEdgeStyle;rounded=0;orthogonalLoop=1;jettySize=auto;html=1;entryX=0.5;entryY=0;entryDx=0;entryDy=0;" edge="1" parent="1" source="AoSis7FvRP4c-89_ETdI-1" target="AoSis7FvRP4c-89_ETdI-2">
          <mxGeometry relative="1" as="geometry">
            <Array as="points">
              <mxPoint x="5970" y="650" />
              <mxPoint x="5366" y="650" />
            </Array>
          </mxGeometry>
        </mxCell>
        <mxCell id="D12nDHIKq8nvivdVP7us-6" style="edgeStyle=orthogonalEdgeStyle;rounded=0;orthogonalLoop=1;jettySize=auto;html=1;entryX=0.5;entryY=0;entryDx=0;entryDy=0;" edge="1" parent="1" source="AoSis7FvRP4c-89_ETdI-1" target="AoSis7FvRP4c-89_ETdI-5">
          <mxGeometry relative="1" as="geometry">
            <Array as="points">
              <mxPoint x="5970" y="650" />
              <mxPoint x="6540" y="650" />
            </Array>
          </mxGeometry>
        </mxCell>
        <mxCell id="D12nDHIKq8nvivdVP7us-7" style="edgeStyle=orthogonalEdgeStyle;rounded=0;orthogonalLoop=1;jettySize=auto;html=1;" edge="1" parent="1" source="AoSis7FvRP4c-89_ETdI-1" target="AoSis7FvRP4c-89_ETdI-6">
          <mxGeometry relative="1" as="geometry">
            <Array as="points">
              <mxPoint x="5970" y="650" />
              <mxPoint x="7454" y="650" />
            </Array>
          </mxGeometry>
        </mxCell>
        <mxCell id="AoSis7FvRP4c-89_ETdI-1" value="Beehive Monitoring Project" style="whiteSpace=wrap;strokeWidth=2;" vertex="1" parent="1">
          <mxGeometry x="5850" y="40" width="254" height="49" as="geometry" />
        </mxCell>
        <mxCell id="AoSis7FvRP4c-89_ETdI-2" value="Project Management" style="whiteSpace=wrap;strokeWidth=2;" vertex="1" parent="1">
          <mxGeometry x="5262" y="680" width="208" height="49" as="geometry" />
        </mxCell>
        <mxCell id="D12nDHIKq8nvivdVP7us-2" style="edgeStyle=orthogonalEdgeStyle;rounded=0;orthogonalLoop=1;jettySize=auto;html=1;" edge="1" parent="1" source="AoSis7FvRP4c-89_ETdI-3" target="AoSis7FvRP4c-89_ETdI-15">
          <mxGeometry relative="1" as="geometry">
            <Array as="points">
              <mxPoint x="5930" y="140" />
              <mxPoint x="5930" y="400" />
              <mxPoint x="5577" y="400" />
            </Array>
          </mxGeometry>
        </mxCell>
        <mxCell id="AoSis7FvRP4c-89_ETdI-3" value="Hardware Development" style="whiteSpace=wrap;strokeWidth=2;" vertex="1" parent="1">
          <mxGeometry x="5120" y="119" width="229" height="49" as="geometry" />
        </mxCell>
        <mxCell id="D12nDHIKq8nvivdVP7us-12" style="edgeStyle=orthogonalEdgeStyle;rounded=0;orthogonalLoop=1;jettySize=auto;html=1;entryX=0.5;entryY=0;entryDx=0;entryDy=0;" edge="1" parent="1" source="AoSis7FvRP4c-89_ETdI-4" target="AoSis7FvRP4c-89_ETdI-34">
          <mxGeometry relative="1" as="geometry" />
        </mxCell>
        <mxCell id="AoSis7FvRP4c-89_ETdI-4" value="Software Development" style="whiteSpace=wrap;strokeWidth=2;" vertex="1" parent="1">
          <mxGeometry x="6917.3" y="119" width="223" height="49" as="geometry" />
        </mxCell>
        <mxCell id="AoSis7FvRP4c-89_ETdI-5" value="Integration &amp; Testing" style="whiteSpace=wrap;strokeWidth=2;" vertex="1" parent="1">
          <mxGeometry x="6417" y="680" width="246" height="49" as="geometry" />
        </mxCell>
        <mxCell id="AoSis7FvRP4c-89_ETdI-6" value="Documentation" style="whiteSpace=wrap;strokeWidth=2;" vertex="1" parent="1">
          <mxGeometry x="7370" y="680" width="169" height="49" as="geometry" />
        </mxCell>
        <mxCell id="AoSis7FvRP4c-89_ETdI-7" value="Project Planning" style="whiteSpace=wrap;strokeWidth=2;" vertex="1" parent="1">
          <mxGeometry x="4810" y="779" width="178" height="49" as="geometry" />
        </mxCell>
        <mxCell id="AoSis7FvRP4c-89_ETdI-8" value="Risk Management" style="whiteSpace=wrap;strokeWidth=2;" vertex="1" parent="1">
          <mxGeometry x="5028" y="779" width="184" height="49" as="geometry" />
        </mxCell>
        <mxCell id="AoSis7FvRP4c-89_ETdI-9" value="Resource Allocation" style="whiteSpace=wrap;strokeWidth=2;" vertex="1" parent="1">
          <mxGeometry x="5252" y="779" width="200" height="49" as="geometry" />
        </mxCell>
        <mxCell id="AoSis7FvRP4c-89_ETdI-10" value="Timeline Management" style="whiteSpace=wrap;strokeWidth=2;" vertex="1" parent="1">
          <mxGeometry x="5492" y="779" width="219" height="49" as="geometry" />
        </mxCell>
        <mxCell id="AoSis7FvRP4c-89_ETdI-11" value="Stakeholder Communication" style="whiteSpace=wrap;strokeWidth=2;" vertex="1" parent="1">
          <mxGeometry x="5751" y="779" width="171" height="49" as="geometry" />
        </mxCell>
        <mxCell id="D12nDHIKq8nvivdVP7us-8" style="edgeStyle=orthogonalEdgeStyle;rounded=0;orthogonalLoop=1;jettySize=auto;html=1;exitX=0.5;exitY=1;exitDx=0;exitDy=0;" edge="1" parent="1" source="AoSis7FvRP4c-89_ETdI-12" target="AoSis7FvRP4c-89_ETdI-20">
          <mxGeometry relative="1" as="geometry">
            <Array as="points">
              <mxPoint x="4854" y="480" />
              <mxPoint x="4960" y="480" />
              <mxPoint x="4960" y="570" />
              <mxPoint x="4860" y="570" />
            </Array>
          </mxGeometry>
        </mxCell>
        <mxCell id="D12nDHIKq8nvivdVP7us-10" style="edgeStyle=orthogonalEdgeStyle;rounded=0;orthogonalLoop=1;jettySize=auto;html=1;entryX=0.5;entryY=0;entryDx=0;entryDy=0;" edge="1" parent="1" source="AoSis7FvRP4c-89_ETdI-12" target="AoSis7FvRP4c-89_ETdI-21">
          <mxGeometry relative="1" as="geometry">
            <Array as="points">
              <mxPoint x="4854" y="480" />
              <mxPoint x="4960" y="480" />
              <mxPoint x="4960" y="570" />
              <mxPoint x="5063" y="570" />
            </Array>
          </mxGeometry>
        </mxCell>
        <mxCell id="D12nDHIKq8nvivdVP7us-11" style="edgeStyle=orthogonalEdgeStyle;rounded=0;orthogonalLoop=1;jettySize=auto;html=1;exitX=0.25;exitY=1;exitDx=0;exitDy=0;" edge="1" parent="1" source="AoSis7FvRP4c-89_ETdI-12" target="AoSis7FvRP4c-89_ETdI-16">
          <mxGeometry relative="1" as="geometry">
            <Array as="points">
              <mxPoint x="4854" y="459" />
              <mxPoint x="4854" y="480" />
              <mxPoint x="4740" y="480" />
              <mxPoint x="4740" y="570" />
              <mxPoint x="4665" y="570" />
            </Array>
          </mxGeometry>
        </mxCell>
        <mxCell id="AoSis7FvRP4c-89_ETdI-12" value="Sensor Systems" style="whiteSpace=wrap;strokeWidth=2;" vertex="1" parent="1">
          <mxGeometry x="4770" y="410" width="168" height="49" as="geometry" />
        </mxCell>
        <mxCell id="AoSis7FvRP4c-89_ETdI-13" value="Processing Units" style="whiteSpace=wrap;strokeWidth=2;" vertex="1" parent="1">
          <mxGeometry x="4822.05" y="218" width="175" height="49" as="geometry" />
        </mxCell>
        <mxCell id="AoSis7FvRP4c-89_ETdI-14" value="Communication Systems" style="whiteSpace=wrap;strokeWidth=2;" vertex="1" parent="1">
          <mxGeometry x="5462.05" y="218" width="233" height="49" as="geometry" />
        </mxCell>
        <mxCell id="AoSis7FvRP4c-89_ETdI-15" value="Power Systems" style="whiteSpace=wrap;strokeWidth=2;" vertex="1" parent="1">
          <mxGeometry x="5494.5" y="420" width="166" height="49" as="geometry" />
        </mxCell>
        <mxCell id="AoSis7FvRP4c-89_ETdI-16" value="Temperature Sensors" style="whiteSpace=wrap;strokeWidth=2;" vertex="1" parent="1">
          <mxGeometry x="4560" y="590" width="210" height="49" as="geometry" />
        </mxCell>
        <mxCell id="AoSis7FvRP4c-89_ETdI-17" value="Optical Sensors" style="whiteSpace=wrap;strokeWidth=2;" vertex="1" parent="1">
          <mxGeometry x="4550.55" y="509" width="170" height="49" as="geometry" />
        </mxCell>
        <mxCell id="AoSis7FvRP4c-89_ETdI-18" value="Vibration Sensors" style="whiteSpace=wrap;strokeWidth=2;" vertex="1" parent="1">
          <mxGeometry x="4762" y="509" width="184" height="49" as="geometry" />
        </mxCell>
        <mxCell id="AoSis7FvRP4c-89_ETdI-19" value="Microphones" style="whiteSpace=wrap;strokeWidth=2;" vertex="1" parent="1">
          <mxGeometry x="4984.55" y="509" width="150" height="49" as="geometry" />
        </mxCell>
        <mxCell id="AoSis7FvRP4c-89_ETdI-20" value="Cameras" style="whiteSpace=wrap;strokeWidth=2;" vertex="1" parent="1">
          <mxGeometry x="4800" y="590" width="121" height="49" as="geometry" />
        </mxCell>
        <mxCell id="AoSis7FvRP4c-89_ETdI-21" value="Humidity Sensors" style="whiteSpace=wrap;strokeWidth=2;" vertex="1" parent="1">
          <mxGeometry x="4971" y="590" width="183" height="49" as="geometry" />
        </mxCell>
        <mxCell id="AoSis7FvRP4c-89_ETdI-22" value="MCU Setup" style="whiteSpace=wrap;strokeWidth=2;" vertex="1" parent="1">
          <mxGeometry x="4617.05" y="317" width="137" height="49" as="geometry" />
        </mxCell>
        <mxCell id="AoSis7FvRP4c-89_ETdI-23" value="MCU Configuration" style="whiteSpace=wrap;strokeWidth=2;" vertex="1" parent="1">
          <mxGeometry x="4794.05" y="317" width="194" height="49" as="geometry" />
        </mxCell>
        <mxCell id="AoSis7FvRP4c-89_ETdI-24" value="Microcomputer Implementation" style="whiteSpace=wrap;strokeWidth=2;" vertex="1" parent="1">
          <mxGeometry x="5020" y="317" width="194" height="49" as="geometry" />
        </mxCell>
        <mxCell id="AoSis7FvRP4c-89_ETdI-25" value="LoRa Implementation" style="whiteSpace=wrap;strokeWidth=2;" vertex="1" parent="1">
          <mxGeometry x="5242.05" y="317" width="213" height="49" as="geometry" />
        </mxCell>
        <mxCell id="AoSis7FvRP4c-89_ETdI-26" value="MCU - Microcomputer interface" style="whiteSpace=wrap;strokeWidth=2;" vertex="1" parent="1">
          <mxGeometry x="5486" y="317" width="215" height="49" as="geometry" />
        </mxCell>
        <mxCell id="AoSis7FvRP4c-89_ETdI-27" value="App Alerts and commincation" style="whiteSpace=wrap;strokeWidth=2;" vertex="1" parent="1">
          <mxGeometry x="5750.05" y="317" width="165" height="49" as="geometry" />
        </mxCell>
        <mxCell id="AoSis7FvRP4c-89_ETdI-28" value="Power Supply Design" style="whiteSpace=wrap;strokeWidth=2;" vertex="1" parent="1">
          <mxGeometry x="5240" y="519" width="206" height="49" as="geometry" />
        </mxCell>
        <mxCell id="AoSis7FvRP4c-89_ETdI-29" value="Battery Management" style="whiteSpace=wrap;strokeWidth=2;" vertex="1" parent="1">
          <mxGeometry x="5486" y="519" width="209" height="49" as="geometry" />
        </mxCell>
        <mxCell id="AoSis7FvRP4c-89_ETdI-30" value="Solar Integration" style="whiteSpace=wrap;strokeWidth=2;" vertex="1" parent="1">
          <mxGeometry x="5735" y="519" width="180" height="49" as="geometry" />
        </mxCell>
        <mxCell id="AoSis7FvRP4c-89_ETdI-31" value="Signal Processing" style="whiteSpace=wrap;strokeWidth=2;" vertex="1" parent="1">
          <mxGeometry x="6449.05" y="420" width="181" height="49" as="geometry" />
        </mxCell>
        <mxCell id="AoSis7FvRP4c-89_ETdI-32" value="Computer Vision" style="whiteSpace=wrap;strokeWidth=2;" vertex="1" parent="1">
          <mxGeometry x="6451.55" y="218" width="177" height="49" as="geometry" />
        </mxCell>
        <mxCell id="AoSis7FvRP4c-89_ETdI-33" value="Web/Mobile Application" style="whiteSpace=wrap;strokeWidth=2;" vertex="1" parent="1">
          <mxGeometry x="7233.5" y="420" width="232" height="49" as="geometry" />
        </mxCell>
        <mxCell id="AoSis7FvRP4c-89_ETdI-34" value="Data Management" style="whiteSpace=wrap;strokeWidth=2;" vertex="1" parent="1">
          <mxGeometry x="7280.499999999999" y="218" width="189" height="49" as="geometry" />
        </mxCell>
        <mxCell id="AoSis7FvRP4c-89_ETdI-35" value="DSP Algorithm Implementation" style="whiteSpace=wrap;strokeWidth=2;" vertex="1" parent="1">
          <mxGeometry x="6229.05" y="519" width="174" height="66" as="geometry" />
        </mxCell>
        <mxCell id="AoSis7FvRP4c-89_ETdI-36" value="Vibration Analysis" style="whiteSpace=wrap;strokeWidth=2;" vertex="1" parent="1">
          <mxGeometry x="6443.05" y="519" width="187" height="49" as="geometry" />
        </mxCell>
        <mxCell id="AoSis7FvRP4c-89_ETdI-37" value="Audio Processing" style="whiteSpace=wrap;strokeWidth=2;" vertex="1" parent="1">
          <mxGeometry x="6670.05" y="519" width="180" height="49" as="geometry" />
        </mxCell>
        <mxCell id="AoSis7FvRP4c-89_ETdI-38" value="Pollen Detection System" style="whiteSpace=wrap;strokeWidth=2;" vertex="1" parent="1">
          <mxGeometry x="6021.05" y="317" width="234" height="49" as="geometry" />
        </mxCell>
        <mxCell id="AoSis7FvRP4c-89_ETdI-39" value="Hornet Detection System" style="whiteSpace=wrap;strokeWidth=2;" vertex="1" parent="1">
          <mxGeometry x="6295.05" y="317" width="239" height="49" as="geometry" />
        </mxCell>
        <mxCell id="AoSis7FvRP4c-89_ETdI-40" value="Varroa Detection System" style="whiteSpace=wrap;strokeWidth=2;" vertex="1" parent="1">
          <mxGeometry x="6574.05" y="317" width="236" height="49" as="geometry" />
        </mxCell>
        <mxCell id="AoSis7FvRP4c-89_ETdI-41" value="Video Pre-processing" style="whiteSpace=wrap;strokeWidth=2;" vertex="1" parent="1">
          <mxGeometry x="6850.05" y="317" width="209" height="49" as="geometry" />
        </mxCell>
        <mxCell id="AoSis7FvRP4c-89_ETdI-42" value="Frontend Development" style="whiteSpace=wrap;strokeWidth=2;" vertex="1" parent="1">
          <mxGeometry x="6870" y="519" width="224" height="49" as="geometry" />
        </mxCell>
        <mxCell id="AoSis7FvRP4c-89_ETdI-43" value="Backend Development" style="whiteSpace=wrap;strokeWidth=2;" vertex="1" parent="1">
          <mxGeometry x="7134" y="519" width="219" height="49" as="geometry" />
        </mxCell>
        <mxCell id="AoSis7FvRP4c-89_ETdI-44" value="API Development" style="whiteSpace=wrap;strokeWidth=2;" vertex="1" parent="1">
          <mxGeometry x="7393" y="519" width="183" height="49" as="geometry" />
        </mxCell>
        <mxCell id="AoSis7FvRP4c-89_ETdI-45" value="User Interface Design" style="whiteSpace=wrap;strokeWidth=2;" vertex="1" parent="1">
          <mxGeometry x="7616" y="519" width="213" height="49" as="geometry" />
        </mxCell>
        <mxCell id="AoSis7FvRP4c-89_ETdI-46" value="Database Design" style="whiteSpace=wrap;strokeWidth=2;" vertex="1" parent="1">
          <mxGeometry x="7089.999999999999" y="317" width="177" height="49" as="geometry" />
        </mxCell>
        <mxCell id="AoSis7FvRP4c-89_ETdI-47" value="Data Analytics" style="whiteSpace=wrap;strokeWidth=2;" vertex="1" parent="1">
          <mxGeometry x="7306.999999999999" y="317" width="162" height="49" as="geometry" />
        </mxCell>
        <mxCell id="AoSis7FvRP4c-89_ETdI-48" value="Alert System" style="whiteSpace=wrap;strokeWidth=2;" vertex="1" parent="1">
          <mxGeometry x="7509" y="317" width="151" height="49" as="geometry" />
        </mxCell>
        <mxCell id="AoSis7FvRP4c-89_ETdI-49" value="Unit Testing" style="whiteSpace=wrap;strokeWidth=2;" vertex="1" parent="1">
          <mxGeometry x="6030.000000000001" y="779" width="145" height="49" as="geometry" />
        </mxCell>
        <mxCell id="AoSis7FvRP4c-89_ETdI-50" value="Integration Testing" style="whiteSpace=wrap;strokeWidth=2;" vertex="1" parent="1">
          <mxGeometry x="6215.000000000001" y="779" width="194" height="49" as="geometry" />
        </mxCell>
        <mxCell id="AoSis7FvRP4c-89_ETdI-51" value="System Testing" style="whiteSpace=wrap;strokeWidth=2;" vertex="1" parent="1">
          <mxGeometry x="6449" y="779" width="165" height="49" as="geometry" />
        </mxCell>
        <mxCell id="AoSis7FvRP4c-89_ETdI-52" value="Field Testing" style="whiteSpace=wrap;strokeWidth=2;" vertex="1" parent="1">
          <mxGeometry x="6654" y="779" width="150" height="49" as="geometry" />
        </mxCell>
        <mxCell id="AoSis7FvRP4c-89_ETdI-53" value="Performance Testing" style="whiteSpace=wrap;strokeWidth=2;" vertex="1" parent="1">
          <mxGeometry x="6844" y="779" width="206" height="49" as="geometry" />
        </mxCell>
        <mxCell id="AoSis7FvRP4c-89_ETdI-54" value="Technical Documentation" style="whiteSpace=wrap;strokeWidth=2;" vertex="1" parent="1">
          <mxGeometry x="7090" y="779" width="241" height="49" as="geometry" />
        </mxCell>
        <mxCell id="AoSis7FvRP4c-89_ETdI-55" value="User Documentation" style="whiteSpace=wrap;strokeWidth=2;" vertex="1" parent="1">
          <mxGeometry x="7371" y="779" width="205" height="49" as="geometry" />
        </mxCell>
        <mxCell id="AoSis7FvRP4c-89_ETdI-56" value="Test Documentation" style="whiteSpace=wrap;strokeWidth=2;" vertex="1" parent="1">
          <mxGeometry x="7616" y="779" width="203" height="49" as="geometry" />
        </mxCell>
        <mxCell id="AoSis7FvRP4c-89_ETdI-58" value="" style="curved=1;startArrow=none;endArrow=block;exitX=0;exitY=0.54;entryX=0.5;entryY=-0.01;rounded=0;" edge="1" parent="1" source="AoSis7FvRP4c-89_ETdI-1" target="AoSis7FvRP4c-89_ETdI-3">
          <mxGeometry relative="1" as="geometry" />
        </mxCell>
        <mxCell id="AoSis7FvRP4c-89_ETdI-59" value="" style="curved=1;startArrow=none;endArrow=block;exitX=1;exitY=0.5;entryX=0.5;entryY=-0.01;rounded=0;exitDx=0;exitDy=0;" edge="1" parent="1" source="AoSis7FvRP4c-89_ETdI-1" target="AoSis7FvRP4c-89_ETdI-4">
          <mxGeometry relative="1" as="geometry" />
        </mxCell>
        <mxCell id="AoSis7FvRP4c-89_ETdI-62" value="" style="curved=1;startArrow=none;endArrow=block;exitX=0;exitY=0.76;entryX=0.5;entryY=0;rounded=0;" edge="1" parent="1" source="AoSis7FvRP4c-89_ETdI-2" target="AoSis7FvRP4c-89_ETdI-7">
          <mxGeometry relative="1" as="geometry" />
        </mxCell>
        <mxCell id="AoSis7FvRP4c-89_ETdI-63" value="" style="curved=1;startArrow=none;endArrow=block;exitX=0.14;exitY=0.99;entryX=0.5;entryY=0;rounded=0;" edge="1" parent="1" source="AoSis7FvRP4c-89_ETdI-2" target="AoSis7FvRP4c-89_ETdI-8">
          <mxGeometry relative="1" as="geometry" />
        </mxCell>
        <mxCell id="AoSis7FvRP4c-89_ETdI-64" value="" style="curved=1;startArrow=none;endArrow=block;exitX=0.71;exitY=0.99;entryX=0.5;entryY=0;rounded=0;" edge="1" parent="1" source="AoSis7FvRP4c-89_ETdI-2" target="AoSis7FvRP4c-89_ETdI-9">
          <mxGeometry relative="1" as="geometry" />
        </mxCell>
        <mxCell id="AoSis7FvRP4c-89_ETdI-65" value="" style="curved=1;startArrow=none;endArrow=block;exitX=1;exitY=0.79;entryX=0.5;entryY=0;rounded=0;" edge="1" parent="1" source="AoSis7FvRP4c-89_ETdI-2" target="AoSis7FvRP4c-89_ETdI-10">
          <mxGeometry relative="1" as="geometry" />
        </mxCell>
        <mxCell id="AoSis7FvRP4c-89_ETdI-66" value="" style="curved=1;startArrow=none;endArrow=block;exitX=1;exitY=0.67;entryX=0.5;entryY=0.01;rounded=0;" edge="1" parent="1" source="AoSis7FvRP4c-89_ETdI-2" target="AoSis7FvRP4c-89_ETdI-11">
          <mxGeometry relative="1" as="geometry" />
        </mxCell>
        <mxCell id="AoSis7FvRP4c-89_ETdI-67" value="" style="startArrow=none;endArrow=block;exitX=0;exitY=0.59;entryX=0.5;entryY=0;rounded=0;edgeStyle=orthogonalEdgeStyle;" edge="1" parent="1" source="AoSis7FvRP4c-89_ETdI-3" target="AoSis7FvRP4c-89_ETdI-12">
          <mxGeometry relative="1" as="geometry">
            <Array as="points">
              <mxPoint x="5120" y="140" />
              <mxPoint x="4600" y="140" />
              <mxPoint x="4600" y="390" />
              <mxPoint x="4854" y="390" />
            </Array>
          </mxGeometry>
        </mxCell>
        <mxCell id="AoSis7FvRP4c-89_ETdI-68" value="" style="startArrow=none;endArrow=block;exitX=0;exitY=0.81;entryX=0.5;entryY=0;rounded=0;edgeStyle=orthogonalEdgeStyle;" edge="1" parent="1" source="AoSis7FvRP4c-89_ETdI-3" target="AoSis7FvRP4c-89_ETdI-13">
          <mxGeometry relative="1" as="geometry">
            <Array as="points">
              <mxPoint x="5120" y="140" />
              <mxPoint x="4910" y="140" />
            </Array>
          </mxGeometry>
        </mxCell>
        <mxCell id="AoSis7FvRP4c-89_ETdI-69" value="" style="startArrow=none;endArrow=block;exitX=1;exitY=0.79;entryX=0.5;entryY=0;rounded=0;edgeStyle=orthogonalEdgeStyle;" edge="1" parent="1" source="AoSis7FvRP4c-89_ETdI-3" target="AoSis7FvRP4c-89_ETdI-14">
          <mxGeometry relative="1" as="geometry">
            <Array as="points">
              <mxPoint x="5349" y="140" />
              <mxPoint x="5579" y="140" />
            </Array>
          </mxGeometry>
        </mxCell>
        <mxCell id="AoSis7FvRP4c-89_ETdI-72" value="" style="curved=1;startArrow=none;endArrow=block;exitX=0;exitY=0.5;entryX=0.5;entryY=0.01;rounded=0;exitDx=0;exitDy=0;" edge="1" parent="1" source="AoSis7FvRP4c-89_ETdI-12" target="AoSis7FvRP4c-89_ETdI-17">
          <mxGeometry relative="1" as="geometry" />
        </mxCell>
        <mxCell id="AoSis7FvRP4c-89_ETdI-73" value="" style="curved=1;startArrow=none;endArrow=block;exitX=0.5;exitY=1;entryX=0.5;entryY=0.01;rounded=0;exitDx=0;exitDy=0;" edge="1" parent="1" source="AoSis7FvRP4c-89_ETdI-12" target="AoSis7FvRP4c-89_ETdI-18">
          <mxGeometry relative="1" as="geometry" />
        </mxCell>
        <mxCell id="AoSis7FvRP4c-89_ETdI-74" value="" style="curved=1;startArrow=none;endArrow=block;exitX=1;exitY=0.5;entryX=0.5;entryY=0.01;rounded=0;exitDx=0;exitDy=0;" edge="1" parent="1" source="AoSis7FvRP4c-89_ETdI-12" target="AoSis7FvRP4c-89_ETdI-19">
          <mxGeometry relative="1" as="geometry" />
        </mxCell>
        <mxCell id="AoSis7FvRP4c-89_ETdI-77" value="" style="curved=1;startArrow=none;endArrow=block;exitX=0;exitY=0.95;entryX=0.5;entryY=0.01;rounded=0;" edge="1" parent="1" source="AoSis7FvRP4c-89_ETdI-13" target="AoSis7FvRP4c-89_ETdI-22">
          <mxGeometry relative="1" as="geometry" />
        </mxCell>
        <mxCell id="AoSis7FvRP4c-89_ETdI-78" value="" style="curved=1;startArrow=none;endArrow=block;exitX=0.47;exitY=1;entryX=0.5;entryY=0.01;rounded=0;" edge="1" parent="1" source="AoSis7FvRP4c-89_ETdI-13" target="AoSis7FvRP4c-89_ETdI-23">
          <mxGeometry relative="1" as="geometry" />
        </mxCell>
        <mxCell id="AoSis7FvRP4c-89_ETdI-79" value="" style="curved=1;startArrow=none;endArrow=block;exitX=1;exitY=0.97;entryX=0.5;entryY=-0.01;rounded=0;" edge="1" parent="1" source="AoSis7FvRP4c-89_ETdI-13" target="AoSis7FvRP4c-89_ETdI-24">
          <mxGeometry relative="1" as="geometry" />
        </mxCell>
        <mxCell id="AoSis7FvRP4c-89_ETdI-80" value="" style="curved=1;startArrow=none;endArrow=block;exitX=0;exitY=0.99;entryX=0.5;entryY=0.01;rounded=0;" edge="1" parent="1" source="AoSis7FvRP4c-89_ETdI-14" target="AoSis7FvRP4c-89_ETdI-25">
          <mxGeometry relative="1" as="geometry" />
        </mxCell>
        <mxCell id="AoSis7FvRP4c-89_ETdI-81" value="" style="curved=1;startArrow=none;endArrow=block;exitX=0.47;exitY=1;entryX=0.5;entryY=-0.01;rounded=0;" edge="1" parent="1" source="AoSis7FvRP4c-89_ETdI-14" target="AoSis7FvRP4c-89_ETdI-26">
          <mxGeometry relative="1" as="geometry" />
        </mxCell>
        <mxCell id="AoSis7FvRP4c-89_ETdI-82" value="" style="curved=1;startArrow=none;endArrow=block;exitX=0.9;exitY=1;entryX=0.5;entryY=-0.01;rounded=0;" edge="1" parent="1" source="AoSis7FvRP4c-89_ETdI-14" target="AoSis7FvRP4c-89_ETdI-27">
          <mxGeometry relative="1" as="geometry" />
        </mxCell>
        <mxCell id="AoSis7FvRP4c-89_ETdI-83" value="" style="curved=1;startArrow=none;endArrow=block;exitX=0;exitY=0.85;entryX=0.5;entryY=0.01;rounded=0;" edge="1" parent="1" source="AoSis7FvRP4c-89_ETdI-15" target="AoSis7FvRP4c-89_ETdI-28">
          <mxGeometry relative="1" as="geometry" />
        </mxCell>
        <mxCell id="AoSis7FvRP4c-89_ETdI-84" value="" style="curved=1;startArrow=none;endArrow=block;exitX=0.45;exitY=1;entryX=0.5;entryY=0.01;rounded=0;" edge="1" parent="1" source="AoSis7FvRP4c-89_ETdI-15" target="AoSis7FvRP4c-89_ETdI-29">
          <mxGeometry relative="1" as="geometry" />
        </mxCell>
        <mxCell id="AoSis7FvRP4c-89_ETdI-85" value="" style="curved=1;startArrow=none;endArrow=block;exitX=0.99;exitY=0.93;entryX=0.5;entryY=0.01;rounded=0;" edge="1" parent="1" source="AoSis7FvRP4c-89_ETdI-15" target="AoSis7FvRP4c-89_ETdI-30">
          <mxGeometry relative="1" as="geometry" />
        </mxCell>
        <mxCell id="AoSis7FvRP4c-89_ETdI-86" value="" style="startArrow=none;endArrow=block;exitX=0;exitY=0.57;entryX=0.5;entryY=0;rounded=0;edgeStyle=orthogonalEdgeStyle;" edge="1" parent="1" source="AoSis7FvRP4c-89_ETdI-4" target="AoSis7FvRP4c-89_ETdI-31">
          <mxGeometry relative="1" as="geometry">
            <Array as="points">
              <mxPoint x="6917" y="144" />
              <mxPoint x="6010" y="144" />
              <mxPoint x="6010" y="383" />
              <mxPoint x="6540" y="383" />
            </Array>
          </mxGeometry>
        </mxCell>
        <mxCell id="AoSis7FvRP4c-89_ETdI-87" value="" style="startArrow=none;endArrow=block;exitX=0;exitY=0.72;entryX=0.5;entryY=0;rounded=0;edgeStyle=orthogonalEdgeStyle;" edge="1" parent="1" source="AoSis7FvRP4c-89_ETdI-4" target="AoSis7FvRP4c-89_ETdI-32">
          <mxGeometry relative="1" as="geometry">
            <Array as="points">
              <mxPoint x="6917" y="144" />
              <mxPoint x="6540" y="144" />
            </Array>
          </mxGeometry>
        </mxCell>
        <mxCell id="AoSis7FvRP4c-89_ETdI-88" value="" style="startArrow=none;endArrow=block;exitX=1;exitY=0.69;entryX=0.5;entryY=0;rounded=0;edgeStyle=orthogonalEdgeStyle;" edge="1" parent="1" source="AoSis7FvRP4c-89_ETdI-4" target="AoSis7FvRP4c-89_ETdI-33">
          <mxGeometry relative="1" as="geometry">
            <Array as="points">
              <mxPoint x="7140" y="144" />
              <mxPoint x="7690" y="144" />
              <mxPoint x="7690" y="390" />
              <mxPoint x="7349" y="390" />
            </Array>
          </mxGeometry>
        </mxCell>
        <mxCell id="AoSis7FvRP4c-89_ETdI-90" value="" style="curved=1;startArrow=none;endArrow=block;exitX=0;exitY=0.94;entryX=0.5;entryY=-0.01;rounded=0;" edge="1" parent="1" source="AoSis7FvRP4c-89_ETdI-31" target="AoSis7FvRP4c-89_ETdI-35">
          <mxGeometry relative="1" as="geometry" />
        </mxCell>
        <mxCell id="AoSis7FvRP4c-89_ETdI-91" value="" style="curved=1;startArrow=none;endArrow=block;exitX=0.47;exitY=1;entryX=0.5;entryY=0.01;rounded=0;" edge="1" parent="1" source="AoSis7FvRP4c-89_ETdI-31" target="AoSis7FvRP4c-89_ETdI-36">
          <mxGeometry relative="1" as="geometry" />
        </mxCell>
        <mxCell id="AoSis7FvRP4c-89_ETdI-92" value="" style="curved=1;startArrow=none;endArrow=block;exitX=1;exitY=0.99;entryX=0.5;entryY=0.01;rounded=0;" edge="1" parent="1" source="AoSis7FvRP4c-89_ETdI-31" target="AoSis7FvRP4c-89_ETdI-37">
          <mxGeometry relative="1" as="geometry" />
        </mxCell>
        <mxCell id="AoSis7FvRP4c-89_ETdI-93" value="" style="curved=1;startArrow=none;endArrow=block;exitX=0;exitY=0.73;entryX=0.5;entryY=0.01;rounded=0;" edge="1" parent="1" source="AoSis7FvRP4c-89_ETdI-32" target="AoSis7FvRP4c-89_ETdI-38">
          <mxGeometry relative="1" as="geometry" />
        </mxCell>
        <mxCell id="AoSis7FvRP4c-89_ETdI-94" value="" style="curved=1;startArrow=none;endArrow=block;exitX=0.08;exitY=1;entryX=0.5;entryY=0.01;rounded=0;" edge="1" parent="1" source="AoSis7FvRP4c-89_ETdI-32" target="AoSis7FvRP4c-89_ETdI-39">
          <mxGeometry relative="1" as="geometry" />
        </mxCell>
        <mxCell id="AoSis7FvRP4c-89_ETdI-95" value="" style="curved=1;startArrow=none;endArrow=block;exitX=0.76;exitY=1;entryX=0.5;entryY=0.01;rounded=0;" edge="1" parent="1" source="AoSis7FvRP4c-89_ETdI-32" target="AoSis7FvRP4c-89_ETdI-40">
          <mxGeometry relative="1" as="geometry" />
        </mxCell>
        <mxCell id="AoSis7FvRP4c-89_ETdI-96" value="" style="curved=1;startArrow=none;endArrow=block;exitX=1;exitY=0.77;entryX=0.5;entryY=0.01;rounded=0;" edge="1" parent="1" source="AoSis7FvRP4c-89_ETdI-32" target="AoSis7FvRP4c-89_ETdI-41">
          <mxGeometry relative="1" as="geometry" />
        </mxCell>
        <mxCell id="AoSis7FvRP4c-89_ETdI-97" value="" style="curved=1;startArrow=none;endArrow=block;exitX=0;exitY=0.83;entryX=0.5;entryY=0.01;rounded=0;" edge="1" parent="1" source="AoSis7FvRP4c-89_ETdI-33" target="AoSis7FvRP4c-89_ETdI-42">
          <mxGeometry relative="1" as="geometry" />
        </mxCell>
        <mxCell id="AoSis7FvRP4c-89_ETdI-98" value="" style="curved=1;startArrow=none;endArrow=block;exitX=0.23;exitY=1;entryX=0.5;entryY=0.01;rounded=0;" edge="1" parent="1" source="AoSis7FvRP4c-89_ETdI-33" target="AoSis7FvRP4c-89_ETdI-43">
          <mxGeometry relative="1" as="geometry" />
        </mxCell>
        <mxCell id="AoSis7FvRP4c-89_ETdI-99" value="" style="curved=1;startArrow=none;endArrow=block;exitX=0.69;exitY=1;entryX=0.5;entryY=0.01;rounded=0;" edge="1" parent="1" source="AoSis7FvRP4c-89_ETdI-33" target="AoSis7FvRP4c-89_ETdI-44">
          <mxGeometry relative="1" as="geometry" />
        </mxCell>
        <mxCell id="AoSis7FvRP4c-89_ETdI-100" value="" style="curved=1;startArrow=none;endArrow=block;exitX=1;exitY=0.89;entryX=0.5;entryY=0.01;rounded=0;" edge="1" parent="1" source="AoSis7FvRP4c-89_ETdI-33" target="AoSis7FvRP4c-89_ETdI-45">
          <mxGeometry relative="1" as="geometry" />
        </mxCell>
        <mxCell id="AoSis7FvRP4c-89_ETdI-101" value="" style="curved=1;startArrow=none;endArrow=block;exitX=0.01;exitY=1;entryX=0.5;entryY=0.01;rounded=0;" edge="1" parent="1" source="AoSis7FvRP4c-89_ETdI-34" target="AoSis7FvRP4c-89_ETdI-46">
          <mxGeometry relative="1" as="geometry" />
        </mxCell>
        <mxCell id="AoSis7FvRP4c-89_ETdI-102" value="" style="curved=1;startArrow=none;endArrow=block;exitX=0.5;exitY=1;entryX=0.5;entryY=0.01;rounded=0;" edge="1" parent="1" source="AoSis7FvRP4c-89_ETdI-34" target="AoSis7FvRP4c-89_ETdI-47">
          <mxGeometry relative="1" as="geometry" />
        </mxCell>
        <mxCell id="AoSis7FvRP4c-89_ETdI-103" value="" style="curved=1;startArrow=none;endArrow=block;exitX=0.96;exitY=1;entryX=0.5;entryY=0.01;rounded=0;" edge="1" parent="1" source="AoSis7FvRP4c-89_ETdI-34" target="AoSis7FvRP4c-89_ETdI-48">
          <mxGeometry relative="1" as="geometry" />
        </mxCell>
        <mxCell id="AoSis7FvRP4c-89_ETdI-104" value="" style="curved=1;startArrow=none;endArrow=block;exitX=0;exitY=0.72;entryX=0.5;entryY=0;rounded=0;" edge="1" parent="1" source="AoSis7FvRP4c-89_ETdI-5" target="AoSis7FvRP4c-89_ETdI-49">
          <mxGeometry relative="1" as="geometry" />
        </mxCell>
        <mxCell id="AoSis7FvRP4c-89_ETdI-105" value="" style="curved=1;startArrow=none;endArrow=block;exitX=0;exitY=0.87;entryX=0.5;entryY=0;rounded=0;" edge="1" parent="1" source="AoSis7FvRP4c-89_ETdI-5" target="AoSis7FvRP4c-89_ETdI-50">
          <mxGeometry relative="1" as="geometry" />
        </mxCell>
        <mxCell id="AoSis7FvRP4c-89_ETdI-106" value="" style="curved=1;startArrow=none;endArrow=block;exitX=0.3;exitY=0.99;entryX=0.5;entryY=0;rounded=0;" edge="1" parent="1" source="AoSis7FvRP4c-89_ETdI-5" target="AoSis7FvRP4c-89_ETdI-51">
          <mxGeometry relative="1" as="geometry" />
        </mxCell>
        <mxCell id="AoSis7FvRP4c-89_ETdI-107" value="" style="curved=1;startArrow=none;endArrow=block;exitX=0.72;exitY=0.99;entryX=0.5;entryY=0;rounded=0;" edge="1" parent="1" source="AoSis7FvRP4c-89_ETdI-5" target="AoSis7FvRP4c-89_ETdI-52">
          <mxGeometry relative="1" as="geometry" />
        </mxCell>
        <mxCell id="AoSis7FvRP4c-89_ETdI-108" value="" style="curved=1;startArrow=none;endArrow=block;exitX=1;exitY=0.86;entryX=0.5;entryY=0;rounded=0;" edge="1" parent="1" source="AoSis7FvRP4c-89_ETdI-5" target="AoSis7FvRP4c-89_ETdI-53">
          <mxGeometry relative="1" as="geometry" />
        </mxCell>
        <mxCell id="AoSis7FvRP4c-89_ETdI-109" value="" style="curved=1;startArrow=none;endArrow=block;exitX=0;exitY=0.71;entryX=0.5;entryY=0;rounded=0;" edge="1" parent="1" source="AoSis7FvRP4c-89_ETdI-6" target="AoSis7FvRP4c-89_ETdI-54">
          <mxGeometry relative="1" as="geometry" />
        </mxCell>
        <mxCell id="AoSis7FvRP4c-89_ETdI-110" value="" style="curved=1;startArrow=none;endArrow=block;exitX=0.17;exitY=0.99;entryX=0.5;entryY=0;rounded=0;" edge="1" parent="1" source="AoSis7FvRP4c-89_ETdI-6" target="AoSis7FvRP4c-89_ETdI-55">
          <mxGeometry relative="1" as="geometry" />
        </mxCell>
        <mxCell id="AoSis7FvRP4c-89_ETdI-111" value="" style="curved=1;startArrow=none;endArrow=block;exitX=0.91;exitY=0.99;entryX=0.5;entryY=0;rounded=0;" edge="1" parent="1" source="AoSis7FvRP4c-89_ETdI-6" target="AoSis7FvRP4c-89_ETdI-56">
          <mxGeometry relative="1" as="geometry" />
        </mxCell>
      </root>
    </mxGraphModel>
  </diagram>
</mxfile>
